<svg xmlns="http://www.w3.org/2000/svg" xmlns:xlink="http://www.w3.org/1999/xlink" width="264" height="137" viewBox="0 0 264 137">
  <defs>
    <rect id="a" width="44" height="60" x="180" y="26"/>
  </defs>
  <g fill="none" fill-rule="evenodd">
    <mask id="b" fill="white">
      <use xlink:href="#a"/>
    </mask>
    <g stroke="#0E83F1" stroke-linecap="square" stroke-width="1.5" mask="url(#b)">
      <g transform="rotate(35 92.034 303.246)">
        <path d="M.742424242 17L97.2575758 17M.742424242 21L97.2575758 21M.742424242 41L97.2575758 41M.742424242 37L97.2575758 37M.742424242 33L97.2575758 33M.742424242 29L97.2575758 29M.742424242 25L97.2575758 25M.742424242 61L97.2575758 61M.742424242 13L97.2575758 13M.742424242 53L97.2575758 53M.742424242 9L97.2575758 9M.742424242 45L97.2575758 45M.742424242 73L97.2575758 73M.742424242 85L97.2575758 85M.742424242 5L97.2575758 5M.742424242 57L97.2575758 57M.742424242 69L97.2575758 69M.742424242 81L97.2575758 81M.742424242 1L97.2575758 1M.742424242 49L97.2575758 49M.742424242 65L97.2575758 65M.742424242 77L97.2575758 77"/>
      </g>
    </g>
  </g>
</svg>