<svg xmlns="http://www.w3.org/2000/svg" xmlns:xlink="http://www.w3.org/1999/xlink" version="1.1" x="0px" y="0px" viewBox="0 0 264 137" style="enable-background:new 0 0 264 137;" xml:space="preserve">
<style type="text/css">
	.st0{clip-path:url(#SVGID_2_);fill:none;stroke:#0E83F1;stroke-width:1.5;stroke-linecap:square;}
	.st1{clip-path:url(#SVGID_4_);fill:none;stroke:#0E83F1;stroke-width:1.5;stroke-linecap:square;}
</style>
<g id="Layer_1">
	<g>
		<defs>
			<path id="SVGID_1_" d="M249,13c-8.7-6.5-29-11-29-11l0.3,0.1c0,0-11.8,2.9-20.3,2.9s-20.3-2.9-20.3-2.9L180,2c0,0-20.3,4.5-29,11     c-9.3,7.4-12,46.3-12,46c0,0.3,13.2,6.5,24,6.5l1,0V128c0,0.2,10.7,6,36.5,6c26.8,0,37.5-5.8,37.5-6V65c10.8,0,23-5.7,23-6     C261,59.3,258.3,20.4,249,13z"/>
		</defs>
		<clipPath id="SVGID_2_">
			<use xlink:href="#SVGID_1_" style="overflow:visible;"/>
		</clipPath>
		<path class="st0" d="M-135.7-40.7l463.2,318.8 M-138-37.4l463.2,318.8 M-149.5-21l463.2,318.8 M-147.2-24.3l463.2,318.8     M-144.9-27.6l463.2,318.8 M-142.6-30.9l463.2,318.8 M-140.3-34.1l463.2,318.8 M-160.9-4.7l463.2,318.8 M-133.4-44l463.2,318.8     M-156.3-11.2l463.2,318.8 M-131.1-47.3l463.2,318.8 M-151.8-17.8L311.5,301 M-167.8,5.2L295.4,324 M-174.7,15l463.2,318.8     M-128.8-50.5l463.2,318.8 M-158.6-7.9l463.2,318.8 M-165.5,1.9l463.2,318.8 M-172.4,11.7l463.2,318.8 M-126.5-53.8L336.7,265     M-154.1-14.5l463.2,318.8 M-163.2-1.4L300,317.4 M-170.1,8.5l463.2,318.8 M-84.7-112.7l463.2,318.8 M-87-109.4l463.2,318.8     M-98.5-93l463.2,318.8 M-96.2-96.3l463.2,318.8 M-93.9-99.6l463.2,318.8 M-91.6-102.9l463.2,318.8 M-89.3-106.1l463.2,318.8     M-109.9-76.7l463.2,318.8 M-82.4-116l463.2,318.8 M-105.3-83.2l463.2,318.8 M-80.1-119.3l463.2,318.8 M-100.8-89.8L362.5,229     M-116.8-66.8L346.4,252 M-123.7-57l463.2,318.8 M-77.8-122.5l463.2,318.8 M-107.6-79.9l463.2,318.8 M-114.5-70.1l463.2,318.8     M-121.4-60.3l463.2,318.8 M-75.5-125.8L387.7,193 M-103.1-86.5l463.2,318.8 M-112.2-73.4L351,245.4 M-119.1-63.5l463.2,318.8     M-33.7-184.7l463.2,318.8 M-36-181.4l463.2,318.8 M-47.5-165l463.2,318.8 M-45.2-168.3l463.2,318.8 M-42.9-171.6l463.2,318.8     M-40.6-174.9l463.2,318.8 M-38.3-178.1l463.2,318.8 M-58.9-148.7l463.2,318.8 M-31.4-188l463.2,318.8 M-54.3-155.2l463.2,318.8     M-29.1-191.3l463.2,318.8 M-49.8-161.8L413.5,157 M-65.8-138.8L397.4,180 M-72.7-129l463.2,318.8 M-26.8-194.5l463.2,318.8     M-56.6-151.9l463.2,318.8 M-63.5-142.1l463.2,318.8 M-70.4-132.3l463.2,318.8 M-24.5-197.8L438.7,121 M-52.1-158.5l463.2,318.8     M-61.2-145.4L402,173.4 M-68.1-135.5l463.2,318.8"/>
	</g>
	<g>
		<defs>
			<path id="SVGID_3_" d="M112,13C103.4,6.5,83.3,2,83,2c0,0-12.1,3-20.5,3C55.1,5,43,2,43,2c-0.3,0-20.4,4.5-29,11     C4.7,20.4,2,59.3,2,59c0,0.3,12.1,6,23,6h1v63c0,0.2,10.7,6,36.5,6c26.8,0,37.5-5.8,37.5-6V65h1c10.9,0,23-5.7,23-6     C124,59.3,121.3,20.4,112,13z"/>
		</defs>
		<clipPath id="SVGID_4_">
			<use xlink:href="#SVGID_3_" style="overflow:visible;"/>
		</clipPath>
		<path class="st1" d="M-135.7-40.7l463.2,318.8 M-138-37.4l463.2,318.8 M-149.5-21l463.2,318.8 M-147.2-24.3l463.2,318.8     M-144.9-27.6l463.2,318.8 M-142.6-30.9l463.2,318.8 M-140.3-34.1l463.2,318.8 M-160.9-4.7l463.2,318.8 M-133.4-44l463.2,318.8     M-156.3-11.2l463.2,318.8 M-131.1-47.3l463.2,318.8 M-151.8-17.8L311.5,301 M-167.8,5.2L295.4,324 M-174.7,15l463.2,318.8     M-128.8-50.5l463.2,318.8 M-158.6-7.9l463.2,318.8 M-165.5,1.9l463.2,318.8 M-172.4,11.7l463.2,318.8 M-126.5-53.8L336.7,265     M-154.1-14.5l463.2,318.8 M-163.2-1.4L300,317.4 M-170.1,8.5l463.2,318.8 M-84.7-112.7l463.2,318.8 M-87-109.4l463.2,318.8     M-98.5-93l463.2,318.8 M-96.2-96.3l463.2,318.8 M-93.9-99.6l463.2,318.8 M-91.6-102.9l463.2,318.8 M-89.3-106.1l463.2,318.8     M-109.9-76.7l463.2,318.8 M-82.4-116l463.2,318.8 M-105.3-83.2l463.2,318.8 M-80.1-119.3l463.2,318.8 M-100.8-89.8L362.5,229     M-116.8-66.8L346.4,252 M-123.7-57l463.2,318.8 M-77.8-122.5l463.2,318.8 M-107.6-79.9l463.2,318.8 M-114.5-70.1l463.2,318.8     M-121.4-60.3l463.2,318.8 M-75.5-125.8L387.7,193 M-103.1-86.5l463.2,318.8 M-112.2-73.4L351,245.4 M-119.1-63.5l463.2,318.8     M-33.7-184.7l463.2,318.8 M-36-181.4l463.2,318.8 M-47.5-165l463.2,318.8 M-45.2-168.3l463.2,318.8 M-42.9-171.6l463.2,318.8     M-40.6-174.9l463.2,318.8 M-38.3-178.1l463.2,318.8 M-58.9-148.7l463.2,318.8 M-31.4-188l463.2,318.8 M-54.3-155.2l463.2,318.8     M-29.1-191.3l463.2,318.8 M-49.8-161.8L413.5,157 M-65.8-138.8L397.4,180 M-72.7-129l463.2,318.8 M-26.8-194.5l463.2,318.8     M-56.6-151.9l463.2,318.8 M-63.5-142.1l463.2,318.8 M-70.4-132.3l463.2,318.8 M-24.5-197.8L438.7,121 M-52.1-158.5l463.2,318.8     M-61.2-145.4L402,173.4 M-68.1-135.5l463.2,318.8"/>
	</g>
</g>
<g id="Layer_2">
</g>
</svg>