<svg xmlns="http://www.w3.org/2000/svg" xmlns:xlink="http://www.w3.org/1999/xlink" width="264" height="137" viewBox="0 0 264 137">
  <defs>
    <path id="a" d="M6.27586207,0 C9.17241379,0.5 12.0689655,3 14,5.5 C10.6206897,12.5 9.17241379,25 8.68965517,30 C4.82758621,28.5 1.44827586,26.5 0,26 C0.965517241,20 2.4137931,8.5 6.27586207,0 Z"/>
    <path id="c" d="M7.72413793,0 C11.5862069,8.5 13.0344828,20 14,26 C12.5517241,26.5 9.17241379,28.5 5.31034483,30 C4.82758621,25 3.37931034,12.5 0,5.5 C1.93103448,3 4.82758621,0.5 7.72413793,0 Z"/>
  </defs>
  <g fill="none" fill-rule="evenodd" transform="translate(5 19)">
    <mask id="b" fill="white">
      <use xlink:href="#a"/>
    </mask>
    <path fill="#0E83F1" d="M48.183495,-13.9346999 L-32.0934053,-70.1451907 L-31.2273429,-71.382056 L49.0495575,-15.1715652 L48.183495,-13.9346999 Z M30.8622464,10.8026069 L-49.414654,-45.4078839 L-48.5485916,-46.6447492 L31.7283088,9.56574154 L30.8622464,10.8026069 Z M19.3147472,27.2941447 L-60.9621531,-28.916346 L-60.0960907,-30.1532114 L20.1808097,26.0572794 L19.3147472,27.2941447 Z M33.1717462,7.50429931 L-47.1051542,-48.7061915 L-46.2390917,-49.9430568 L34.0378086,6.26743397 L33.1717462,7.50429931 Z M23.9337469,20.6975296 L-56.3431535,-35.5129612 L-55.477091,-36.7498265 L24.7998093,19.4606642 L23.9337469,20.6975296 Z M35.481246,4.20599174 L-44.7956543,-52.004499 L-43.9295919,-53.2413644 L36.3473084,2.9691264 L35.481246,4.20599174 Z M28.5527465,14.1009144 L-51.7241538,-42.1095763 L-50.8580914,-43.3464417 L29.418809,12.8640491 L28.5527465,14.1009144 Z M12.3862478,37.1890674 L-67.8906526,-19.0214233 L-67.0245901,-20.2582887 L13.2523102,35.9522021 L12.3862478,37.1890674 Z M5.4577483,47.0839901 L-74.819152,-9.12650063 L-73.9530896,-10.363366 L6.32381073,45.8471248 L5.4577483,47.0839901 Z M37.7907458,0.907684168 L-42.4861545,-55.3028066 L-41.6200921,-56.5396719 L38.6568083,-0.32918117 L37.7907458,0.907684168 Z M21.6242471,23.9958372 L-58.6526533,-32.2146536 L-57.7865908,-33.4515189 L22.4903095,22.7589718 L21.6242471,23.9958372 Z M14.6957476,33.8907599 L-65.5811528,-22.3197309 L-64.7150903,-23.5565962 L15.56181,32.6538945 L14.6957476,33.8907599 Z M7.76724812,43.7856826 L-72.5096522,-12.4248082 L-71.6435898,-13.6616735 L8.63331055,42.5488172 L7.76724812,43.7856826 Z M40.1002456,-2.3906234 L-40.1766547,-58.6011142 L-39.3105923,-59.8379795 L40.9663081,-3.62748874 L40.1002456,-2.3906234 Z M26.2432467,17.399222 L-54.0336536,-38.8112687 L-53.1675912,-40.0481341 L27.1093091,16.1623567 L26.2432467,17.399222 Z M17.0052474,30.5924523 L-63.2716529,-25.6180385 L-62.4055905,-26.8549038 L17.8713098,29.355587 L17.0052474,30.5924523 Z M10.0767479,40.487375 L-70.2001524,-15.7231158 L-69.33409,-16.9599811 L10.9428104,39.2505097 L10.0767479,40.487375 Z" mask="url(#b)"/>
    <g transform="translate(239)">
      <mask id="d" fill="white">
        <use xlink:href="#c"/>
      </mask>
      <path fill="#0E83F1" d="M-64.5790212,-13.9346999 L-65.4450836,-15.1715652 L14.8318167,-71.382056 L15.6978792,-70.1451907 L-64.5790212,-13.9346999 Z M-47.2577725,10.8026069 L-48.1238349,9.56574154 L32.1530654,-46.6447492 L33.0191279,-45.4078839 L-47.2577725,10.8026069 Z M-33.4007735,30.5924523 L-34.266836,29.355587 L46.0100644,-26.8549038 L46.8761268,-25.6180385 L-33.4007735,30.5924523 Z M-49.5672723,7.50429931 L-50.4333347,6.26743397 L29.8435656,-49.9430568 L30.709628,-48.7061915 L-49.5672723,7.50429931 Z M-38.0197732,23.9958372 L-38.8858356,22.7589718 L41.3910647,-33.4515189 L42.2571271,-32.2146536 L-38.0197732,23.9958372 Z M-51.8767721,4.20599174 L-52.7428346,2.9691264 L27.5340658,-53.2413644 L28.4001282,-52.004499 L-51.8767721,4.20599174 Z M-44.9482727,14.1009144 L-45.8143351,12.8640491 L34.4625652,-43.3464417 L35.3286277,-42.1095763 L-44.9482727,14.1009144 Z M-26.4722741,40.487375 L-27.3383365,39.2505097 L52.9385638,-16.9599811 L53.8046263,-15.7231158 L-26.4722741,40.487375 Z M-21.8532744,47.0839901 L-22.7193369,45.8471248 L57.5575635,-10.363366 L58.4236259,-9.12650063 L-21.8532744,47.0839901 Z M-54.186272,0.907684168 L-55.0523344,-0.32918117 L25.224566,-56.5396719 L26.0906284,-55.3028066 L-54.186272,0.907684168 Z M-35.7102734,27.2941447 L-36.5763358,26.0572794 L43.7005645,-30.1532114 L44.566627,-28.916346 L-35.7102734,27.2941447 Z M-28.7817739,37.1890674 L-29.6478363,35.9522021 L50.629064,-20.2582887 L51.4951264,-19.0214233 L-28.7817739,37.1890674 Z M-24.1627743,43.7856826 L-25.0288367,42.5488172 L55.2480637,-13.6616735 L56.1141261,-12.4248082 L-24.1627743,43.7856826 Z M-56.4957718,-2.3906234 L-57.3618342,-3.62748874 L22.9150661,-59.8379795 L23.7811286,-58.6011142 L-56.4957718,-2.3906234 Z M-42.6387728,17.399222 L-43.5048353,16.1623567 L36.7720651,-40.0481341 L37.6381275,-38.8112687 L-42.6387728,17.399222 Z M-31.0912737,33.8907599 L-31.9573362,32.6538945 L48.3195642,-23.5565962 L49.1856266,-22.3197309 L-31.0912737,33.8907599 Z M-40.329273,20.6975296 L-41.1953354,19.4606642 L39.0815649,-36.7498265 L39.9476273,-35.5129612 L-40.329273,20.6975296 Z" mask="url(#d)"/>
    </g>
  </g>
</svg>