<svg xmlns="http://www.w3.org/2000/svg" xmlns:xlink="http://www.w3.org/1999/xlink" width="264" height="137" viewBox="0 0 264 137">
  <defs>
    <rect id="a" width="44" height="60" x="41" y="26"/>
  </defs>
  <g fill="none" fill-rule="evenodd">
    <path stroke="#000000" stroke-linecap="round" stroke-linejoin="round" stroke-width="2" d="M238,65 C248.799571,65 261,59.2727273 261,59 C261,59.2727273 258.317429,20.3730909 249,13 C240.254,6.536 220,2 220,2 M180,2 C180,2 159.746,6.536 151,13 C141.682571,20.3730909 139,59.2727273 139,59 C139,59.2727273 152.200429,65.5 163,65.5"/>
    <path stroke="#000000" stroke-linecap="round" stroke-linejoin="round" stroke-width="2" d="M179.715597 2.14455982C179.715597 2.14455982 191.5 5.0190047 200 5.0190047 208.5 5.0190047 220.284403 2.14455982 220.284403 2.14455982M101 65C111.898762 65 124 59.2727273 124 59 124 59.2727273 121.339238 20.3730909 112 13 103.422667 6.536 83.3333333 2 83 2 83.3333333 8.08236364 73.5326667 13.4545455 63 13 52.4673333 13.4545455 42.6666667 8.08236364 43 2 42.6666667 2 22.5773333 6.536 14 13 4.6607619 20.3730909 2 59.2727273 2 59 2 59.2727273 14.1012381 65 25 65"/>
    <path stroke="#000000" stroke-linecap="round" stroke-linejoin="round" stroke-width="2" d="M100 39L100 128C99.9946609 128.248857 89.3231241 134 62.5066667 134 36.6768759 134 26.0053391 128.248857 26 128L26 39M238 39L238 128C237.994661 128.248857 227.323124 134 200.506667 134 174.676876 134 164.005339 128.248857 164 128L164 39M43 2C43 2 55.1121661 5 62.5121951 5 70.8878339 5 83 2 83 2"/>
    <rect width="44" height="60" x="180" y="26" stroke="#000000" stroke-dasharray="1 1" stroke-linejoin="bevel"/>
    <path stroke="#000000" stroke-dasharray="1 1" stroke-linejoin="bevel" d="M251.724138 19C255.586207 27.5 257.034483 39 258 45 256.551724 45.5 253.172414 47.5 249.310345 49 248.827586 44 247.37931 31.5 244 24.5 245.931034 22 248.827586 19.5 251.724138 19zM114.724138 19C118.586207 27.5 120.034483 39 121 45 119.551724 45.5 116.172414 47.5 112.310345 49 111.827586 44 110.37931 31.5 107 24.5 108.931034 22 111.827586 19.5 114.724138 19zM11.2758621 19C14.1724138 19.5 17.0689655 22 19 24.5 15.6206897 31.5 14.1724138 44 13.6896552 49 9.82758621 47.5 6.44827586 45.5 5 45 5.96551724 39 7.4137931 27.5 11.2758621 19zM148.275862 19C151.172414 19.5 154.068966 22 156 24.5 152.62069 31.5 151.172414 44 150.689655 49 146.827586 47.5 143.448276 45.5 142 45 142.965517 39 144.413793 27.5 148.275862 19z"/>
    <use stroke="#000000" stroke-dasharray="1 1" stroke-linejoin="bevel" xlink:href="#a"/>
  </g>
</svg>