<svg viewBox="0 0 24 24" width="24" height="24" class="_7ytxmo">
            <path
              d="M19.1 1.9H4.9c-1.7 0-3 1.3-3 3v14.2c0 1.7 1.3 3 3 3h14.2c1.7 0 3-1.3 3-3V4.9c0-1.6-1.4-3-3-3zm2 17.2c0 1.1-.9 2-2 2H4.9c-1.1 0-2-.9-2-2V6.2h18.2v12.9zm0-13.9H2.9v-.3c0-1.1.9-2 2-2h14.2c1.1 0 2 .9 2 2v.3z"
            ></path>
            <path
              d="M5.8 17.9h1.7c.3 0 .5-.2.5-.5v-1l8.3-5.3c.1.1.2.1.3.1h1.7c.3 0 .5-.2.5-.5V9.1c0-.3-.2-.5-.5-.5h-1.7c-.3 0-.5.2-.5.5v1l-8.3 5.3c-.1-.1-.2-.1-.3-.1H5.8c-.3 0-.5.2-.5.5v1.7c-.1.2.2.4.5.4zm11.3-8.3h.7v.7h-.7v-.7zM6.2 16.2h.7v.7h-.7v-.7z"
            ></path>
          </svg>