<svg xmlns:xlink="http://www.w3.org/1999/xlink" viewBox="0 0 60 60" width="60" height="60" class="_uv044x"><defs><path id="$[RANDOM%8999]" d="M0 0h14.386v19.44H0z"></path><path id="c" d="M2.211.443s1.576.054 3.182.614c-1.036 3.196-.556 6.831.01 9.997-1.552.237-2.98-.674-2.98-.674L2.21.443z"></path><path id="e" d="M2.211.443s1.576.054 3.182.614c-1.036 3.196-.556 6.831.01 9.997-1.552.237-2.98-.674-2.98-.674L2.21.443z"></path></defs><g fill="none" fill-rule="evenodd"><g stroke="currentColor" stroke-linecap="round" stroke-linejoin="round" stroke-width="2"><path fill="#FFF" d="M35.075 35.567c3.611 0 7.535-1.865 7.535-1.865s-.862-12.67-3.767-14.924c-2.906-2.254-9.42-3.731-9.42-3.731 0 1.981-3.178 3.73-6.594 3.73-3.416 0-6.594-1.749-6.594-3.73 0 0-6.514 1.477-9.42 3.73-2.904 2.254-3.767 14.925-3.767 14.925s3.924 1.865 7.535 1.865"></path><path fill="#FFF" d="M35.076 27.138l-.001 28.95s-3.533 1.865-12.246 1.865c-8.713 0-12.246-1.866-12.246-1.866l-.001-28.949"></path><path d="M16.235 15.047s4.946.933 6.594.933c1.649 0 6.594-.933 6.594-.933"></path></g><g stroke="currentColor" stroke-linecap="round" stroke-linejoin="round" stroke-width="2"><path fill="#FFF" d="M41.075 29.567c3.611 0 7.535-1.865 7.535-1.865s-.862-12.67-3.767-14.924c-2.906-2.254-9.42-3.731-9.42-3.731 0 1.981-3.178 3.73-6.594 3.73-3.416 0-6.594-1.749-6.594-3.73 0 0-6.514 1.477-9.42 3.73-2.904 2.254-3.767 14.925-3.767 14.925s3.924 1.865 7.535 1.865"></path><path fill="#FFF" d="M41.076 21.138l-.001 28.95s-3.533 1.865-12.246 1.865c-8.713 0-12.246-1.866-12.246-1.866l-.001-28.949"></path><path d="M22.235 9.047s4.946.933 6.594.933c1.649 0 6.594-.933 6.594-.933"></path></g><g stroke="currentColor" stroke-linecap="round" stroke-linejoin="round" stroke-width="2"><path fill="#FFF" d="M47.075 23.567c3.611 0 7.535-1.865 7.535-1.865s-.862-12.67-3.767-14.924c-2.906-2.254-9.42-3.731-9.42-3.731 0 1.981-3.178 3.73-6.594 3.73-3.416 0-6.594-1.749-6.594-3.73 0 0-6.514 1.477-9.42 3.73-2.904 2.254-3.767 14.925-3.767 14.925s3.924 1.865 7.535 1.865"></path><path fill="#FFF" d="M47.076 15.138l-.001 28.95s-3.533 1.865-12.246 1.865c-8.713 0-12.246-1.866-12.246-1.866l-.001-28.949"></path><path d="M28.235 3.047s4.946.933 6.594.933c1.649 0 6.594-.933 6.594-.933"></path></g><path fill="currentColor" d="M42.994 41.18c0 .615.483 1.095 1.098 1.095h.236v-.633h-.17c-.288 0-.496-.197-.496-.465 0-.276.214-.495.485-.495.266 0 .485.231.485.517v1.076h.652v-1.076c0-.653-.49-1.146-1.142-1.146-.655 0-1.148.483-1.148 1.127z"></path><g transform="translate(27.83 13.498)"><mask id="b" fill="#fff"><use xlink:href="#$[RANDOM%8999]"></use></mask><g stroke="currentColor" stroke-linecap="square" stroke-width="0.8" mask="url(#b)"><path d="M-2.305-10.349L16.301 3.375M-9.327-.31L16.49 17.765M-15.062 7.88l25.815 18.077M-8.179-1.95l25.815 18.077M-12.768 4.604L13.048 22.68M-7.032-3.588l25.816 18.076m-29.258-13.16l25.816 18.075m-33.846-6.608L7.312 30.872M-21.945 17.71L3.87 35.786M-5.885-5.226L19.931 12.85m-33.846-6.608L11.9 24.318m-29.258-13.161L8.46 29.233m-29.257-13.161L5.018 34.148m-8.609-42.65L22.225 9.573M-4.738-6.864l25.816 18.076m-32.699-8.247l25.816 18.077M-16.21 9.519L9.606 27.595M-19.65 14.433L6.165 32.51"></path></g></g><g transform="translate(14.5 7.666)"><mask id="d" fill="#fff"><use xlink:href="##c"></use></mask><g stroke="currentColor" stroke-linecap="square" stroke-width="0.8" mask="url(#d)"><path d="M-6.234-20.708L19.58-2.632m-32.698-8.246L12.698 7.198M-11.97-12.517L13.846 5.56m-32.699-8.247L6.963 15.39m-17.786-29.544L14.993 3.921M-16.56-5.964L9.257 12.113M-9.676-15.793L16.14 2.283M-14.264-9.24L11.55 8.836m-33.846-6.608L3.521 20.304M-25.736 7.143L.08 25.219M-8.53-17.43L17.287.644m-34.993-4.97L8.11 13.75M-21.147.59L4.668 18.666M-24.589 5.505L1.227 23.58m-8.609-42.65L18.434-.995m-33.846-6.608l25.816 18.077M-20-1.05L5.815 17.028M-23.442 3.866L2.374 21.943"></path></g></g><g transform="matrix(-1 0 0 1 55.06 7.666)"><mask id="f" fill="#fff"><use xlink:href="##e"></use></mask><g stroke="currentColor" stroke-linecap="square" stroke-width="0.8" mask="url(#f)"><path d="M-6.234-20.708L19.58-2.632m-31.551-9.885L13.846 5.56m-31.552-9.885L8.11 13.75m-18.933-27.906L14.993 3.921M-15.412-7.602l25.816 18.077m-20.08-26.268L16.14 2.283m-29.257-13.161L12.698 7.198M-21.147.59L4.668 18.666M-24.589 5.505L1.227 23.58M-8.53-17.432L17.287.645m-33.846-6.609L9.257 12.113M-20-1.05L5.815 17.028M-23.442 3.866L2.374 21.943M-7.382-19.07L18.434-.994M-14.264-9.24L11.55 8.836M-18.853-2.687L6.963 15.39M-22.295 2.228L3.521 20.304"></path></g></g></g></svg>