<svg viewBox="0 0 24 24" width="24" height="24" class="_7ytxmo">
            <g
              fill="none"
              fill-rule="evenodd"
              stroke="currentColor"
              stroke-linecap="round"
              stroke-linejoin="round"
            >
              <path
                d="M18.5 11.5c1.917 0 4-1 4-1s-.458-6.792-2-8c-1.542-1.208-5-2-5-2 0 1.062-1.687 2-3.5 2s-3.5-.938-3.5-2c0 0-3.458.792-5 2-1.542 1.208-2 8-2 8s2.083 1 4 1"
              ></path>
              <path
                d="M19.5 5.5c-.594.594-1 1.75-1 3v14s-1.875 1-6.5 1-6.5-1-6.5-1v-14c0-1.25-.406-2.406-1-3m4-5s2.625.5 3.5.5 3.5-.5 3.5-.5"
              ></path>
            </g>
          </svg>